<svg width="30" height="30" viewBox="0 0 30 30" fill="none" xmlns="http://www.w3.org/2000/svg">
<path d="M15 0C23.2845 0 30 6.75521 30 15.0921C30 22.623 24.5145 28.8666 17.3445 30V19.4537H20.8395L21.504 15.0921L17.3445 15.0906V12.1899C17.367 11.0217 17.961 9.90341 19.7895 9.90341H21.6795V6.18775C21.6795 6.18775 19.9635 5.89194 18.3225 5.89194C14.949 5.89194 12.7275 7.9173 12.6585 11.5877L12.6555 11.7643V15.089H8.8485V19.4507H12.6585V29.997C5.4855 28.8666 0 22.623 0 15.0921C0 6.75672 6.7155 0 15 0Z" fill="#FEFFFD"/>
</svg>
