<svg width="18" height="18" viewBox="0 0 18 18" fill="none" xmlns="http://www.w3.org/2000/svg">
<g clip-path="url(#clip0_228_946)">
<path d="M16.5 10.248H10.25V16.498C10.25 16.8296 10.1183 17.1475 9.88388 17.3819C9.64946 17.6164 9.33152 17.748 9 17.748C8.66848 17.748 8.35054 17.6164 8.11612 17.3819C7.8817 17.1475 7.75 16.8296 7.75 16.498V10.248H1.5C1.16848 10.248 0.850537 10.1164 0.616117 9.88193C0.381696 9.64751 0.25 9.32957 0.25 8.99805C0.25 8.66653 0.381696 8.34858 0.616117 8.11416C0.850537 7.87974 1.16848 7.74805 1.5 7.74805H7.75V1.49805C7.75 1.16653 7.8817 0.848584 8.11612 0.614163C8.35054 0.379743 8.66848 0.248047 9 0.248047C9.33152 0.248047 9.64946 0.379743 9.88388 0.614163C10.1183 0.848584 10.25 1.16653 10.25 1.49805V7.74805H16.5C16.8315 7.74805 17.1495 7.87974 17.3839 8.11416C17.6183 8.34858 17.75 8.66653 17.75 8.99805C17.75 9.32957 17.6183 9.64751 17.3839 9.88193C17.1495 10.1164 16.8315 10.248 16.5 10.248Z" fill="#AA0E17"/>
</g>
<defs>
<clipPath id="clip0_228_946">
<rect width="18" height="18" fill="white"/>
</clipPath>
</defs>
</svg>
