<svg width="22" height="16" viewBox="0 0 22 16" fill="none" xmlns="http://www.w3.org/2000/svg">
<path d="M17.1875 9.625C16.2357 9.625 15.3052 9.34275 14.5138 8.81395C13.7224 8.28514 13.1056 7.53354 12.7413 6.65417C12.3771 5.7748 12.2818 4.80716 12.4675 3.87363C12.6532 2.9401 13.1115 2.08259 13.7846 1.40955C14.4576 0.736511 15.3151 0.278164 16.2486 0.092473C17.1822 -0.0932184 18.1498 0.00208518 19.0292 0.366332C19.9085 0.730579 20.6601 1.34741 21.189 2.13882C21.7178 2.93023 22 3.86068 22 4.8125L22.022 5.5C22.022 6.76397 21.773 8.01557 21.2893 9.18333C20.8056 10.3511 20.0967 11.4121 19.2029 12.3059C18.3091 13.1997 17.2481 13.9086 16.0803 14.3923C14.9126 14.876 13.661 15.125 12.397 15.125V12.375C13.3002 12.3774 14.195 12.2008 15.0295 11.8553C15.8641 11.5097 16.6218 11.0022 17.259 10.362C17.5067 10.1149 17.7351 9.84917 17.9424 9.56725C17.6926 9.6062 17.4403 9.62597 17.1875 9.62638V9.625ZM4.8125 9.625C3.86068 9.625 2.93023 9.34275 2.13882 8.81395C1.34741 8.28514 0.730579 7.53354 0.366332 6.65417C0.00208522 5.7748 -0.0932184 4.80716 0.092473 3.87363C0.278164 2.9401 0.736511 2.08259 1.40955 1.40955C2.08259 0.736511 2.9401 0.278164 3.87363 0.092473C4.80716 -0.0932184 5.7748 0.00208518 6.65417 0.366332C7.53354 0.730579 8.28515 1.34741 8.81395 2.13882C9.34276 2.93023 9.625 3.86068 9.625 4.8125L9.647 5.5C9.647 8.05271 8.63294 10.5009 6.82791 12.3059C5.02287 14.1109 2.57471 15.125 0.0220022 15.125V12.375C0.925237 12.3774 1.81999 12.2008 2.65453 11.8553C3.48907 11.5097 4.24683 11.0022 4.884 10.362C5.13169 10.1149 5.36014 9.84917 5.56738 9.56725C5.31763 9.6062 5.06527 9.62597 4.8125 9.62638V9.625Z" fill="#AA0E17"/>
</svg>
